<svg 
    id="visual" 
    viewBox="0 0 900 600" 
    width="900" height="600" 
    xmlns="http://www.w3.org/2000/svg" 
    xmlns:xlink="http://www.w3.org/1999/xlink" 
    version="1.1">
    
    <g transform="translate(471.75570030971863 282.7387300930476)">
        <path id="blob1" d="M114.7 -102C158.7 -70.7 211.4 -35.4 222.4 11.1C233.5 57.5 203 115 159 154C115 193 57.5 213.5 -6.4 219.9C-70.2 226.2 -140.5 218.5 -190.5 179.5C-240.5 140.5 -270.2 70.2 -268.1 2.1C-266 -66 -232 -132 -182 -163.3C-132 -194.7 -66 -191.3 -15.3 -176C35.4 -160.7 70.7 -133.4 114.7 -102" fill="#BB004B"></path>
    </g>
    
    <g transform="translate(458.38734713781696 278.8819430615632)">
        <path id="blob1_1" d="M113.8 -116C145.2 -82.5 166.6 -41.2 181.3 14.7C196 70.7 204.1 141.4 172.8 178.6C141.4 215.8 70.7 219.4 8.4 211C-54 202.6 -108 182.3 -149.1 145.1C-190.3 108 -218.6 54 -209.3 9.3C-200 -35.4 -153 -70.7 -111.9 -104.2C-70.7 -137.7 -35.4 -169.4 2.9 -172.3C41.2 -175.2 82.5 -149.5 113.8 -116" fill="#BB004B"></path>
    </g>
</svg>